<svg xmlns="http://www.w3.org/2000/svg" xmlns:xlink="http://www.w3.org/1999/xlink" width="50" zoomAndPan="magnify" viewBox="0 0 37.5 37.499999" height="50" preserveAspectRatio="xMidYMid meet" version="1.0"><defs><clipPath id="a67dbfbb2c"><path d="M 19 5 L 37.007812 5 L 37.007812 21 L 19 21 Z M 19 5 " clip-rule="nonzero"/></clipPath><clipPath id="1b2101c46d"><path d="M 4 2.175781 L 22 2.175781 L 22 17 L 4 17 Z M 4 2.175781 " clip-rule="nonzero"/></clipPath><clipPath id="6c5c93ed48"><path d="M 15 20 L 33 20 L 33 34.742188 L 15 34.742188 Z M 15 20 " clip-rule="nonzero"/></clipPath></defs><g clip-path="url(#a67dbfbb2c)"><path fill="#00b4f1" d="M 37.003906 6.671875 C 29.820312 9.644531 26.339844 7.972656 23.246094 5.890625 L 19.765625 18.132812 C 22.878906 20.238281 26.621094 21.976562 33.519531 18.894531 L 37.070312 6.671875 Z M 37.003906 6.671875 " fill-opacity="1" fill-rule="nonzero"/></g><path fill="#00b4f1" d="M 13.714844 31.3125 C 10.601562 29.226562 7.1875 27.492188 0.00390625 30.464844 L 3.53125 18.175781 C 10.710938 15.226562 14.195312 16.898438 17.304688 19.003906 Z M 13.714844 31.3125 " fill-opacity="1" fill-rule="nonzero"/><g clip-path="url(#1b2101c46d)"><path fill="#00b4f1" d="M 17.894531 16.789062 C 15.910156 15.25 13.660156 14.429688 11.148438 14.335938 C 9.253906 14.3125 6.988281 14.855469 4.140625 16.027344 L 7.664062 3.785156 C 14.867188 0.808594 18.328125 2.480469 21.441406 4.585938 Z M 17.894531 16.789062 " fill-opacity="1" fill-rule="nonzero"/></g><g clip-path="url(#6c5c93ed48)"><path fill="#00b4f1" d="M 19.15625 20.195312 C 22.289062 22.28125 25.75 23.953125 32.933594 20.976562 L 29.386719 33.179688 C 22.203125 36.152344 18.742188 34.480469 15.628906 32.375 L 19.179688 20.195312 Z M 19.15625 20.195312 " fill-opacity="1" fill-rule="nonzero"/></g></svg>